<svg xmlns="http://www.w3.org/2000/svg" viewBox="0 0 512 512" width="512" height="512">
  <defs>
    <radialGradient id="bg" cx="50%" cy="37%" r="72%">
      <stop offset="0%" stop-color="#241f16"/><stop offset="100%" stop-color="#16140f"/>
    </radialGradient>
    <linearGradient id="gold" x1="0.12" y1="0.08" x2="0.85" y2="0.95">
      <stop offset="0%" stop-color="#fbf2d2"/><stop offset="18%" stop-color="#f0d089"/>
      <stop offset="52%" stop-color="#d6ab57"/><stop offset="100%" stop-color="#c1953f"/>
    </linearGradient>
    <filter id="glow" x="-30%" y="-30%" width="160%" height="160%">
      <feGaussianBlur stdDeviation="7" result="b"/>
      <feMerge><feMergeNode in="b"/><feMergeNode in="SourceGraphic"/></feMerge>
    </filter>
  </defs>
  <rect width="512" height="512" rx="112" fill="url(#bg)"/>
  <g filter="url(#glow)">
    <path d="M 402.76 219.41 L 404.94 224.14 L 406.41 229.07 L 407.62 234.08 L 408.60 239.15 L 409.37 244.27 L 409.94 249.41 L 410.32 254.59 L 410.51 259.78 L 410.52 264.98 L 410.33 270.18 L 409.96 275.38 L 409.41 280.57 L 408.67 285.74 L 407.75 290.89 L 406.65 296.01 L 405.37 301.10 L 403.92 306.14 L 402.29 311.13 L 400.48 316.07 L 398.51 320.94 L 396.36 325.75 L 394.06 330.49 L 391.58 335.15 L 388.95 339.72 L 386.16 344.21 L 383.22 348.60 L 380.12 352.89 L 376.88 357.07 L 373.49 361.14 L 369.97 365.10 L 366.31 368.94 L 362.51 372.65 L 358.60 376.23 L 354.56 379.68 L 350.40 382.99 L 346.13 386.16 L 341.75 389.18 L 337.27 392.05 L 332.69 394.77 L 328.02 397.34 L 323.26 399.74 L 318.42 401.98 L 313.50 404.06 L 308.52 405.97 L 303.47 407.71 L 298.36 409.28 L 293.20 410.67 L 288.00 411.89 L 282.75 412.93 L 277.47 413.79 L 272.17 414.47 L 266.84 414.97 L 261.49 415.29 L 256.14 415.43 L 250.78 415.38 L 245.43 415.16 L 240.09 414.75 L 234.76 414.16 L 229.45 413.39 L 224.17 412.44 L 218.93 411.31 L 213.73 410.00 L 208.57 408.52 L 203.47 406.86 L 198.42 405.03 L 193.44 403.03 L 188.53 400.86 L 183.69 398.52 L 178.94 396.03 L 174.27 393.37 L 169.70 390.55 L 165.23 387.59 L 160.85 384.47 L 156.59 381.20 L 152.44 377.79 L 148.41 374.24 L 144.50 370.56 L 140.71 366.75 L 137.06 362.81 L 133.55 358.75 L 130.17 354.57 L 126.94 350.29 L 123.86 345.89 L 120.92 341.39 L 118.14 336.80 L 115.52 332.11 L 113.06 327.34 L 110.77 322.49 L 108.64 317.57 L 106.68 312.57 L 104.89 307.52 L 103.27 302.40 L 101.83 297.24 L 100.56 292.03 L 99.47 286.78 L 98.56 281.50 L 97.83 276.19 L 97.28 270.86 L 96.91 265.52 L 96.72 260.17 L 96.72 254.82 L 96.89 249.47 L 97.25 244.13 L 97.79 238.81 L 98.51 233.52 L 99.40 228.25 L 100.48 223.01 L 101.73 217.82 L 103.16 212.68 L 104.76 207.59 L 106.53 202.55 L 108.47 197.59 L 110.57 192.69 L 112.84 187.87 L 115.28 183.13 L 117.87 178.48 L 120.61 173.92 L 123.51 169.46 L 126.55 165.11 L 129.74 160.86 L 133.07 156.72 L 136.54 152.70 L 140.14 148.81 L 143.87 145.04 L 147.72 141.40 L 151.69 137.89 L 155.78 134.53 L 159.97 131.31 L 164.27 128.23 L 168.67 125.31 L 173.17 122.53 L 177.75 119.92 L 182.42 117.46 L 187.16 115.17 L 191.98 113.04 L 196.86 111.08 L 201.80 109.28 L 206.80 107.66 L 211.84 106.21 L 216.93 104.93 L 222.06 103.84 L 227.21 102.91 L 232.39 102.17 L 237.59 101.61 L 242.80 101.22 L 248.01 101.02 L 253.23 100.99 L 258.43 101.15 L 263.62 101.49 L 268.80 102.01 L 273.94 102.71 L 279.05 103.59 L 284.12 104.65 L 289.14 105.90 L 294.10 107.33 L 299.00 108.94 L 303.83 110.74 L 308.57 112.75 L 313.19 114.99 L 317.52 117.83 L 316.50 120.11 L 311.56 119.00 L 306.78 117.62 L 302.00 116.31 L 297.20 115.12 L 292.38 114.07 L 287.54 113.16 L 282.68 112.39 L 277.81 111.78 L 272.93 111.32 L 268.05 111.02 L 263.16 110.87 L 258.28 110.89 L 253.41 111.05 L 248.55 111.38 L 243.71 111.86 L 238.89 112.50 L 234.10 113.30 L 229.34 114.25 L 224.63 115.36 L 219.95 116.62 L 215.33 118.03 L 210.76 119.60 L 206.24 121.31 L 201.79 123.16 L 197.41 125.17 L 193.09 127.31 L 188.86 129.59 L 184.70 132.01 L 180.63 134.57 L 176.66 137.25 L 172.77 140.07 L 168.98 143.01 L 165.30 146.07 L 161.72 149.25 L 158.25 152.54 L 154.89 155.94 L 151.65 159.46 L 148.53 163.07 L 145.54 166.79 L 142.67 170.60 L 139.93 174.50 L 137.32 178.49 L 134.85 182.56 L 132.51 186.70 L 130.32 190.92 L 128.27 195.21 L 126.36 199.56 L 124.60 203.97 L 122.99 208.44 L 121.52 212.95 L 120.21 217.51 L 119.05 222.11 L 118.05 226.74 L 117.20 231.40 L 116.50 236.08 L 115.97 240.79 L 115.58 245.50 L 115.36 250.23 L 115.29 254.96 L 115.38 259.68 L 115.63 264.40 L 116.03 269.11 L 116.59 273.80 L 117.30 278.46 L 118.17 283.10 L 119.19 287.71 L 120.36 292.28 L 121.69 296.81 L 123.16 301.29 L 124.78 305.71 L 126.55 310.08 L 128.46 314.39 L 130.51 318.63 L 132.71 322.80 L 135.04 326.90 L 137.50 330.91 L 140.09 334.84 L 142.82 338.68 L 145.67 342.43 L 148.64 346.09 L 151.73 349.64 L 154.94 353.08 L 158.26 356.42 L 161.69 359.64 L 165.23 362.75 L 168.86 365.74 L 172.59 368.61 L 176.42 371.36 L 180.34 373.97 L 184.34 376.45 L 188.42 378.80 L 192.58 381.02 L 196.80 383.09 L 201.10 385.02 L 205.46 386.81 L 209.87 388.45 L 214.34 389.95 L 218.86 391.30 L 223.42 392.50 L 228.02 393.54 L 232.65 394.43 L 237.31 395.17 L 241.99 395.76 L 246.69 396.19 L 251.40 396.46 L 256.12 396.57 L 260.85 396.53 L 265.57 396.34 L 270.28 395.98 L 274.98 395.47 L 279.66 394.81 L 284.32 393.99 L 288.96 393.01 L 293.56 391.88 L 298.12 390.60 L 302.64 389.17 L 307.11 387.59 L 311.52 385.86 L 315.88 383.98 L 320.18 381.96 L 324.41 379.80 L 328.57 377.50 L 332.66 375.06 L 336.66 372.49 L 340.58 369.78 L 344.40 366.94 L 348.14 363.98 L 351.78 360.89 L 355.31 357.68 L 358.74 354.35 L 362.06 350.92 L 365.27 347.37 L 368.36 343.71 L 371.34 339.95 L 374.18 336.09 L 376.91 332.14 L 379.50 328.10 L 381.96 323.97 L 384.29 319.75 L 386.48 315.46 L 388.53 311.10 L 390.44 306.67 L 392.20 302.17 L 393.82 297.61 L 395.30 293.00 L 396.62 288.34 L 397.79 283.63 L 398.82 278.88 L 399.69 274.09 L 400.41 269.27 L 400.98 264.42 L 401.40 259.55 L 401.66 254.67 L 401.78 249.76 L 401.76 244.85 L 401.59 239.93 L 401.30 235.00 L 400.89 230.06 L 400.42 225.11 L 400.33 220.01 Z" fill="url(#gold)"/>
    <path d="M 422.50 214.49 A 171.60 171.60 0 1 1 325.80 99.24"
          fill="none" stroke="#d6ab57" stroke-opacity="0.55" stroke-width="2.4"/>
    <circle cx="403.58" cy="229.17" r="10.50" fill="#e9c877"/>
  </g>
</svg>
